<svg id="Layer_1" data-name="Layer 1" xmlns="http://www.w3.org/2000/svg" viewBox="0 0 1366 768"><defs><style>.cls-1{fill:#fec037;}</style></defs><path class="cls-1" d="M1366,82.46c-34.15,0-34.15,26.64-68.31,26.64s-34.15-26.64-68.3-26.64-34.16,26.64-68.31,26.64-34.15-26.64-68.3-26.64-34.15,26.64-68.3,26.64-34.15-26.64-68.3-26.64S922,109.1,887.88,109.1s-34.15-26.64-68.3-26.64-34.15,26.64-68.3,26.64S717.13,82.46,683,82.46s-34.15,26.64-68.3,26.64-34.15-26.64-68.3-26.64-34.14,26.64-68.29,26.64-34.15-26.64-68.3-26.64-34.15,26.64-68.3,26.64-34.15-26.64-68.3-26.64S239,109.1,204.89,109.1,170.75,82.46,136.6,82.46,102.45,109.1,68.3,109.1,34.15,82.46,0,82.46V697.4C34.15,697.4,34.15,724,68.3,724s34.15-26.64,68.3-26.64S170.75,724,204.89,724,239,697.4,273.19,697.4,307.34,724,341.49,724s34.15-26.64,68.3-26.64S443.94,724,478.09,724s34.15-26.64,68.29-26.64S580.53,724,614.68,724,648.83,697.4,683,697.4,717.13,724,751.28,724s34.15-26.64,68.3-26.64S853.73,724,887.88,724,922,697.4,956.18,697.4,990.33,724,1024.48,724s34.15-26.64,68.3-26.64,34.15,26.64,68.3,26.64,34.15-26.64,68.31-26.64,34.15,26.64,68.3,26.64,34.16-26.64,68.31-26.64Z"/></svg>